<?xml version="1.0" encoding="UTF-8" standalone="no" ?>
<!DOCTYPE svg PUBLIC "-//W3C//DTD SVG 1.1//EN" "http://www.w3.org/Graphics/SVG/1.1/DTD/svg11.dtd">
<svg xmlns="http://www.w3.org/2000/svg" xmlns:xlink="http://www.w3.org/1999/xlink" version="1.1" width="600" height="600" viewBox="0 0 600 600" xml:space="preserve">
<desc>Created with Fabric.js 5.2.4</desc>
<defs>
</defs>
<rect x="0" y="0" width="100%" height="100%" fill="transparent"></rect>
<g transform="matrix(1 0 0 1 300 300)" id="d408942c-19c8-459a-b6eb-c1dbf723871d"  >
<rect style="stroke: none; stroke-width: 1; stroke-dasharray: none; stroke-linecap: butt; stroke-dashoffset: 0; stroke-linejoin: miter; stroke-miterlimit: 4; fill: rgb(255,255,255); fill-rule: nonzero; opacity: 1; visibility: hidden;" vector-effect="non-scaling-stroke"  x="-300" y="-300" rx="0" ry="0" width="600" height="600" />
</g>
<g transform="matrix(0 0 0 0 0 0)" id="f58e33d8-8d96-4c9b-8ac3-daa9e453725c"  >
</g>
<g transform="matrix(0.56 0 0 0.56 143.21 367.18)"  >
<path style="stroke: none; stroke-width: 1; stroke-dasharray: none; stroke-linecap: butt; stroke-dashoffset: 0; stroke-linejoin: miter; stroke-miterlimit: 4; fill: rgb(118,104,254); fill-rule: nonzero; opacity: 1;" vector-effect="non-scaling-stroke"  transform=" translate(-318.84, -569.6)" d="M 200.71917 407.36064 C 182.67317 422.12552 212.20296 551.72853 212.20296 551.72853 C 212.20296 551.72853 218.76513 749.41416 232.70974999999999 758.43711 C 246.65436999999997 767.4600599999999 277.82475 757.6167899999999 290.12874999999997 755.97628 C 302.43274999999994 754.33577 291.76926999999995 632.11519 273.7233 587.00028 C 255.67733000000004 541.88537 269.622 476.26352 269.622 476.26352 L 367.23437 495.12980000000005 C 367.23437 495.12980000000005 308.17476 545.1664000000001 310.63559000000004 555.8299300000001 C 313.0964200000001 566.4934600000001 376.25733 602.5853800000001 387.74117 604.2259300000001 C 399.22501 605.86648 421.37227 538.60419 441.05886 492.66893000000005 C 460.74544999999995 446.7336700000001 306.5343 417.20387000000005 306.5343 417.20387000000005 L 285.20718999999997 377.01054000000005 C 285.20718999999997 377.01054000000005 218.76519 392.59577 200.71917 407.36064 Z" stroke-linecap="round" />
</g>
<g transform="matrix(0.56 0 0 0.56 116.02 471.68)"  >
<path style="stroke: none; stroke-width: 1; stroke-dasharray: none; stroke-linecap: butt; stroke-dashoffset: 0; stroke-linejoin: miter; stroke-miterlimit: 4; fill: rgb(47,46,65); fill-rule: nonzero; opacity: 1;" vector-effect="non-scaling-stroke"  transform=" translate(-270.69, -759.02)" d="M 249.71 761.841 C 249.71 761.841 243.75764 782.67429 249.71 782.67429 C 255.66236 782.67429 266.575 788.62665 283.44 786.6425300000001 C 300.305 784.6584100000001 295.34467 763.82518 283.44 760.8489700000001 C 271.53533 757.8727600000002 274.51149 734.0633200000001 274.51149 734.0633200000001 C 270.54319 726.1268400000001 251.69407999999999 736.04744 251.69407999999999 736.04744 Z" stroke-linecap="round" />
</g>
<g transform="matrix(0.56 0 0 0.56 160.99 382.55)"  >
<path style="stroke: none; stroke-width: 1; stroke-dasharray: none; stroke-linecap: butt; stroke-dashoffset: 0; stroke-linejoin: miter; stroke-miterlimit: 4; fill: rgb(47,46,65); fill-rule: nonzero; opacity: 1;" vector-effect="non-scaling-stroke"  transform=" translate(-351.63, -598.56)" d="M 334.21617 596.17371 C 334.21617 596.17371 324.00426 615.2831600000001 329.82271 616.5383800000001 C 335.64115999999996 617.7936000000001 345.05318 625.9135000000001 361.95734999999996 627.5305700000001 C 378.8615199999999 629.1476400000001 378.40619999999996 607.7368200000001 367.39683999999994 602.3170600000001 C 356.3874799999999 596.8973000000001 364.31783999999993 574.2509200000001 364.31783999999993 574.2509200000001 C 362.11249999999995 565.6560900000001 341.59514999999993 571.3785600000001 341.59514999999993 571.3785600000001 Z" stroke-linecap="round" />
</g>
<g transform="matrix(0.56 0 0 0.56 90.97 192.95)"  >
<path style="stroke: none; stroke-width: 1; stroke-dasharray: none; stroke-linecap: butt; stroke-dashoffset: 0; stroke-linejoin: miter; stroke-miterlimit: 4; fill: rgb(255,185,185); fill-rule: nonzero; opacity: 1;" vector-effect="non-scaling-stroke"  transform=" translate(-225.62, -257.3)" d="M 211.7928 229.77171 C 213.43331 233.05280000000002 206.05088 274.06639 206.05088 274.06639 L 212.61306000000002 285.5502 C 212.61306000000002 285.5502 250.34561000000002 270.78539 244.60369000000003 268.32455000000004 C 238.86177000000004 265.8637100000001 239.68203000000003 235.51366000000004 239.68203000000003 235.51366000000004 C 239.68203000000003 235.51366000000004 210.15228 226.49062 211.7928 229.77171 Z" stroke-linecap="round" />
</g>
<g transform="matrix(0.56 0 0 0.56 91.31 156.83)"  >
<circle style="stroke: none; stroke-width: 1; stroke-dasharray: none; stroke-linecap: butt; stroke-dashoffset: 0; stroke-linejoin: miter; stroke-miterlimit: 4; fill: rgb(118,104,254); fill-rule: nonzero; opacity: 1;" vector-effect="non-scaling-stroke"  cx="0" cy="0" r="50.29399" />
</g>
<g transform="matrix(0.56 0 0 0.56 89.25 130.54)"  >
<circle style="stroke: none; stroke-width: 1; stroke-dasharray: none; stroke-linecap: butt; stroke-dashoffset: 0; stroke-linejoin: miter; stroke-miterlimit: 4; fill: rgb(118,104,254); fill-rule: nonzero; opacity: 1;" vector-effect="non-scaling-stroke"  cx="0" cy="0" r="20.81129" />
</g>
<g transform="matrix(0.74 0 0 0.56 98.56 124.28)"  >
<path style="stroke: none; stroke-width: 1; stroke-dasharray: none; stroke-linecap: butt; stroke-dashoffset: 0; stroke-linejoin: miter; stroke-miterlimit: 4; fill: rgb(118,104,254); fill-rule: nonzero; opacity: 1;" vector-effect="non-scaling-stroke"  transform=" translate(-243.12, -133.76)" d="M 231.63121 154.4627 C 232.35141635224682 154.53747716249183 233.07500211802176 154.5750337827527 233.79908 154.57522 C 241.2342521961624 154.57522016040838 248.10463469631173 150.60860310626563 251.82222084069886 144.169555129612 C 255.53980698508596 137.73050715295838 255.53980698508596 129.79727284704163 251.82222084069886 123.358224870388 C 248.10463469631173 116.91917689373437 241.2342521961624 112.95255983959163 233.79908 112.95256 C 233.07500211802176 112.9527462172473 232.35141635224682 112.99030283750818 231.63121 113.06508000000001 C 242.22783937037457 114.1753241688046 250.2746367045417 123.10925738655673 250.2746367045417 133.76389 C 250.2746367045417 144.4185226134433 242.22783937037457 153.3524558311954 231.63121 154.4627 Z" stroke-linecap="round" />
</g>
<g transform="matrix(0.56 0 0 0.56 92.01 170.39)"  >
<circle style="stroke: none; stroke-width: 1; stroke-dasharray: none; stroke-linecap: butt; stroke-dashoffset: 0; stroke-linejoin: miter; stroke-miterlimit: 4; fill: rgb(255,185,185); fill-rule: nonzero; opacity: 1;" vector-effect="non-scaling-stroke"  cx="0" cy="0" r="34.45142" />
</g>
<g transform="matrix(0.56 0 0 0.56 91.74 237.01)"  >
<path style="stroke: none; stroke-width: 1; stroke-dasharray: none; stroke-linecap: butt; stroke-dashoffset: 0; stroke-linejoin: miter; stroke-miterlimit: 4; fill: rgb(187,3,225); fill-opacity: 0.73; fill-rule: nonzero; opacity: 1;" vector-effect="non-scaling-stroke"  transform=" translate(-226.55, -336.21)" d="M 177.75143 269.55494 C 167.08785 272.01574 149.04188 298.26446 149.04188 298.26446 L 177.75143 326.974 C 177.75143 326.974 198.25823 404.07957 200.71906 407.36066 C 216.84072 428.85618 289.30847 381.11198 289.30847 381.11198 C 289.30847 381.11198 286.43747 357.73422 288.07806 346.25041 C 289.6559 335.20564 281.92606 313.02941 281.92606 313.02941 C 281.92606 313.02941 308.99506 301.5456 303.25317 290.06179 C 297.51128 278.57797999999997 262.23952 252.32928999999996 247.47465 261.35227 C 232.70977999999997 270.37525 203.17997 261.35227 203.17997 261.35227 C 203.17997 261.35227 188.415 267.09414 177.75143 269.55494 Z" stroke-linecap="round" />
</g>
<g transform="matrix(0.56 0 0 0.56 197.46 299.36)"  >
<path style="stroke: none; stroke-width: 1; stroke-dasharray: none; stroke-linecap: butt; stroke-dashoffset: 0; stroke-linejoin: miter; stroke-miterlimit: 4; fill: rgb(255,185,185); fill-rule: nonzero; opacity: 1;" vector-effect="non-scaling-stroke"  transform=" translate(-417.23, -448.93)" d="M 387.33106 434.8398 C 387.33106 434.8398 434.08651 475.03317000000004 445.57036 466.83041000000003 C 457.05421 458.62765 401.27567999999997 429.91814000000005 401.27567999999997 429.91814000000005 Z" stroke-linecap="round" />
</g>
<g transform="matrix(0.56 0 0 0.56 73.05 278.06)"  >
<path style="stroke: none; stroke-width: 1; stroke-dasharray: none; stroke-linecap: butt; stroke-dashoffset: 0; stroke-linejoin: miter; stroke-miterlimit: 4; fill: rgb(255,185,185); fill-rule: nonzero; opacity: 1;" vector-effect="non-scaling-stroke"  transform=" translate(-193.37, -410.63)" d="M 177.34139 420.89516 C 183.90357 428.27763 215.07394 409.41134999999997 211.07775999999998 401.03294 C 207.08157999999997 392.65453 182.26298999999997 409.41134999999997 182.26298999999997 409.41134999999997 C 182.26298999999997 409.41134999999997 170.77921 413.51269 177.34139 420.89516 Z" stroke-linecap="round" />
</g>
<g transform="matrix(0.56 0 0 0.56 49.38 249.84)"  >
<path style="stroke: none; stroke-width: 1; stroke-dasharray: none; stroke-linecap: butt; stroke-dashoffset: 0; stroke-linejoin: miter; stroke-miterlimit: 4; fill: rgb(230,230,230); fill-rule: nonzero; opacity: 1;" vector-effect="non-scaling-stroke"  transform=" translate(-150.61, -359.37)" d="M 177.75149 309.74827 L 143.30007999999998 373.72949 C 143.30007999999998 373.72949 182.67307999999997 406.54041 187.5947 407.36064 C 192.51632 408.18086999999997 177.75143 429.50798 177.75143 429.50798 C 177.75143 429.50798 133.45675 398.33763 116.23104000000001 382.75246999999996 C 99.00533000000001 367.16730999999993 149.04194 298.26446999999996 149.04194 298.26446999999996 L 163.80687 289.24146999999994 Z" stroke-linecap="round" />
</g>
<g transform="matrix(0.56 0 0 0.56 155.72 252.51)"  >
<path style="stroke: none; stroke-width: 1; stroke-dasharray: none; stroke-linecap: butt; stroke-dashoffset: 0; stroke-linejoin: miter; stroke-miterlimit: 4; fill: rgb(230,230,230); fill-rule: nonzero; opacity: 1;" vector-effect="non-scaling-stroke"  transform=" translate(-341.81, -364.11)" d="M 277.82469 307.2875 L 318.018 369.62817 C 318.018 369.62817 379.53844 438.53105 387.74114 441.81211 C 395.94383999999997 445.09317000000004 405.78713999999997 429.50801 405.78713999999997 429.50801 L 331.96265999999997 340.09834 L 304.07343 290.06174 L 293.4099 285.96038999999996 Z" stroke-linecap="round" />
</g>
<g transform="matrix(0.56 0 0 0.56 91.24 147.59)"  >
<ellipse style="stroke: none; stroke-width: 1; stroke-dasharray: none; stroke-linecap: butt; stroke-dashoffset: 0; stroke-linejoin: miter; stroke-miterlimit: 4; fill: rgb(118,104,254); fill-rule: nonzero; opacity: 1;" vector-effect="non-scaling-stroke"  cx="0" cy="0" rx="34.68552" ry="20.81131" />
</g>
<g transform="matrix(0.56 0 0 0.56 284.8 440.31)"  >
<path style="stroke: none; stroke-width: 1; stroke-dasharray: none; stroke-linecap: butt; stroke-dashoffset: 0; stroke-linejoin: miter; stroke-miterlimit: 4; fill: rgb(230,230,230); fill-rule: nonzero; opacity: 1;" vector-effect="non-scaling-stroke"  transform=" translate(-572.63, -702.15)" d="M 323.29931 624.742 C 320.9323520312594 624.744766260756 319.0142417809264 626.6628720377172 319.01147 629.02983 L 319.01147 775.27447 C 319.01424184666695 777.6414182181481 320.9323617369158 779.5595067946371 323.29931 779.56224 L 821.96811 779.56224 C 824.3350234259608 779.5594462491204 826.2530907289768 777.6413834194386 826.25589 775.27447 L 826.25589 629.02977 C 826.2531402888571 626.6628246816273 824.3350552796638 624.7447128321809 821.96811 624.74193 Z" stroke-linecap="round" />
</g>
<g transform="matrix(0.56 0 0 0.56 284.75 440.26)"  >
<path style="stroke: none; stroke-width: 1; stroke-dasharray: none; stroke-linecap: butt; stroke-dashoffset: 0; stroke-linejoin: miter; stroke-miterlimit: 4; fill: rgb(255,255,255); fill-rule: nonzero; opacity: 1;" vector-effect="non-scaling-stroke"  transform=" translate(-572.63, -702.15)" d="M 329.75661 768.81711 L 815.51047 768.81711 L 815.51047 635.48718 L 329.75661 635.48718 Z" stroke-linecap="round" />
</g>
<g transform="matrix(0.56 0 0 0.56 392.52 465.61)"  >
<path style="stroke: none; stroke-width: 1; stroke-dasharray: none; stroke-linecap: butt; stroke-dashoffset: 0; stroke-linejoin: miter; stroke-miterlimit: 4; fill: rgb(187,3,225); fill-rule: nonzero; opacity: 1;" vector-effect="non-scaling-stroke"  transform=" translate(-768.4, -748.26)" d="M 754.19649 741.15725 C 751.6569519489892 741.15423668352 749.3090317364804 742.5073337811441 748.0383920467016 744.7061374038824 C 746.7677523569226 746.9049410266206 746.7677523569226 749.6148489733794 748.0383920467016 751.8136525961175 C 749.3090317364804 754.0124562188558 751.6569519489892 755.3655533164799 754.19649 755.36254 L 782.607 755.36254 C 786.5296825169619 755.36254 789.709645 752.1825775169619 789.709645 748.2598949999999 C 789.709645 744.337212483038 786.5296825169619 741.15725 782.607 741.15725 L 754.19649 741.15725 Z" stroke-linecap="round" />
</g>
<g transform="matrix(0.56 0 0 0.56 313.89 454.5)"  >
<rect style="stroke: none; stroke-width: 1; stroke-dasharray: none; stroke-linecap: butt; stroke-dashoffset: 0; stroke-linejoin: miter; stroke-miterlimit: 4; fill: rgb(230,230,230); fill-rule: nonzero; opacity: 1;" vector-effect="non-scaling-stroke"  x="-163.985" y="-0.935" rx="0" ry="0" width="327.97" height="1.87" />
</g>
<g transform="matrix(0.56 0 0 0.56 184.15 440.14)"  >
<circle style="stroke: none; stroke-width: 1; stroke-dasharray: none; stroke-linecap: butt; stroke-dashoffset: 0; stroke-linejoin: miter; stroke-miterlimit: 4; fill: rgb(118,104,254); fill-rule: nonzero; opacity: 1;" vector-effect="non-scaling-stroke"  cx="0" cy="0" r="41.36917" />
</g>
<g transform="matrix(0.56 0 0 0.56 313.93 429.24)"  >
<polygon style="stroke: none; stroke-width: 1; stroke-dasharray: none; stroke-linecap: butt; stroke-dashoffset: 0; stroke-linejoin: miter; stroke-miterlimit: 4; fill: rgb(187,3,225); fill-rule: nonzero; opacity: 1;" vector-effect="non-scaling-stroke"  points="-163.52,34.38 -164.55,32.82 -130.47,10.1 -107.1,21.32 -73.49,-0.16 -6.62,28.37 46.63,2.21 98.34,23.17 163.31,-34.38 164.55,-32.98 98.71,25.34 46.7,4.25 -6.56,30.42 -73.31,1.95 -106.97,23.45 -130.32,12.25 -163.52,34.38 " />
</g>
<g transform="matrix(0.56 0 0 0.56 243.25 465.58)"  >
<path style="stroke: none; stroke-width: 1; stroke-dasharray: none; stroke-linecap: butt; stroke-dashoffset: 0; stroke-linejoin: miter; stroke-miterlimit: 4; fill: rgb(230,230,230); fill-rule: nonzero; opacity: 1;" vector-effect="non-scaling-stroke"  transform=" translate(-499.58, -748.21)" d="M 467.81765 742.1343 C 465.64596438886855 742.1315133665337 463.63805083006133 743.2884937210628 462.55140279790567 745.1687655666037 C 461.46475476575006 747.0490374121446 461.46475476575006 749.3664325878556 462.55140279790567 751.2467044333964 C 463.63805083006133 753.1269762789374 465.64596438886855 754.2839566334665 467.81765 754.2811700000001 L 531.35512 754.2811700000001 C 534.7063424913553 754.2768698247354 537.420766773789 751.5589602502738 537.420766773789 748.2077350000001 C 537.420766773789 744.8565097497263 534.7063424913553 742.1386001752647 531.35512 742.1343 Z" stroke-linecap="round" />
</g>
<g transform="matrix(0.56 0 0 0.56 184.07 440.04)"  >
<path style="stroke: none; stroke-width: 1; stroke-dasharray: none; stroke-linecap: butt; stroke-dashoffset: 0; stroke-linejoin: miter; stroke-miterlimit: 4; fill: rgb(255,255,255); fill-rule: nonzero; opacity: 1;" vector-effect="non-scaling-stroke"  transform=" translate(-393.19, -702.15)" d="M 408.98917 683.6448 L 415.45332 683.6448 L 402.00287000000003 696.9558000000001 C 397.11370661666075 701.774870051554 389.2608833833393 701.774870051554 384.37172000000004 696.9558000000001 L 370.92305000000005 683.6448 L 377.38721000000004 683.6448 L 387.60469000000006 693.7568 C 390.7012739484645 696.8091746779254 395.6751060515356 696.8091746779254 398.77169000000004 693.7568 Z M 377.305 720.65949 L 370.84084 720.65949 L 384.37356 707.26625 C 389.26272439286987 702.447191907685 397.11553560713014 702.447191907685 402.0047 707.26625 L 415.53742 720.65949 L 409.07326 720.65949 L 398.77173 710.46525 C 395.67514605153553 707.4128753220746 390.7013139484645 707.4128753220746 387.60473 710.46525 Z" stroke-linecap="round" />
</g>
<g transform="matrix(0.56 0 0 0.56 320.87 180.07)"  >
<path style="stroke: none; stroke-width: 1; stroke-dasharray: none; stroke-linecap: butt; stroke-dashoffset: 0; stroke-linejoin: miter; stroke-miterlimit: 4; fill: rgb(230,230,230); fill-rule: nonzero; opacity: 1;" vector-effect="non-scaling-stroke"  transform=" translate(-637.57, -233.72)" d="M 388.23446 156.30683 C 385.8674997565224 156.30959628274255 383.9493907625669 158.22770975007737 383.94663 160.59466999999998 L 383.94663 306.83934 C 383.94939632651926 309.2062882245516 385.86751174335126 311.12438127441226 388.23446 311.12712 L 886.90327 311.12712 C 889.2701788572158 311.1243097332458 891.1882352533789 309.20624886376345 891.19104 306.83934 L 891.19104 160.59464 C 891.1882957980803 158.22769629924136 889.2702136556431 156.30958284314931 886.90327 156.3068 Z" stroke-linecap="round" />
</g>
<g transform="matrix(0.56 0 0 0.56 320.82 180.02)"  >
<path style="stroke: none; stroke-width: 1; stroke-dasharray: none; stroke-linecap: butt; stroke-dashoffset: 0; stroke-linejoin: miter; stroke-miterlimit: 4; fill: rgb(255,255,255); fill-rule: nonzero; opacity: 1;" vector-effect="non-scaling-stroke"  transform=" translate(-637.57, -233.72)" d="M 394.69176 300.382 L 880.44562 300.382 L 880.44562 167.05205 L 394.69176 167.05205 Z" stroke-linecap="round" />
</g>
<g transform="matrix(0.56 0 0 0.56 428.6 205.37)"  >
<path style="stroke: none; stroke-width: 1; stroke-dasharray: none; stroke-linecap: butt; stroke-dashoffset: 0; stroke-linejoin: miter; stroke-miterlimit: 4; fill: rgb(187,3,225); fill-rule: nonzero; opacity: 1;" vector-effect="non-scaling-stroke"  transform=" translate(-833.34, -279.82)" d="M 819.13164 272.72212 C 815.2089547216143 272.72212 812.0289899999999 275.90208472161436 812.0289899999999 279.82477000000006 C 812.0289899999999 283.7474552783857 815.2089547216143 286.92742000000004 819.13164 286.92742000000004 L 847.5421799999999 286.92742000000004 C 851.4648652783856 286.92742000000004 854.64483 283.7474552783857 854.64483 279.82477000000006 C 854.64483 275.90208472161436 851.4648652783856 272.72212 847.5421799999999 272.72212 L 819.13164 272.72212 Z" stroke-linecap="round" />
</g>
<g transform="matrix(0.56 0 0 0.56 349.97 194.26)"  >
<rect style="stroke: none; stroke-width: 1; stroke-dasharray: none; stroke-linecap: butt; stroke-dashoffset: 0; stroke-linejoin: miter; stroke-miterlimit: 4; fill: rgb(230,230,230); fill-rule: nonzero; opacity: 1;" vector-effect="non-scaling-stroke"  x="-163.985" y="-0.935" rx="0" ry="0" width="327.97" height="1.87" />
</g>
<g transform="matrix(0.56 0 0 0.56 220.23 179.9)"  >
<circle style="stroke: none; stroke-width: 1; stroke-dasharray: none; stroke-linecap: butt; stroke-dashoffset: 0; stroke-linejoin: miter; stroke-miterlimit: 4; fill: rgb(118,104,254); fill-rule: nonzero; opacity: 1;" vector-effect="non-scaling-stroke"  cx="0" cy="0" r="41.36917" />
</g>
<g transform="matrix(0.56 0 0 0.56 350 169)"  >
<polygon style="stroke: none; stroke-width: 1; stroke-dasharray: none; stroke-linecap: butt; stroke-dashoffset: 0; stroke-linejoin: miter; stroke-miterlimit: 4; fill: rgb(187,3,225); fill-rule: nonzero; opacity: 1;" vector-effect="non-scaling-stroke"  points="-163.52,34.38 -164.55,32.82 -130.47,10.1 -107.1,21.32 -73.49,-0.16 -73.03,0.04 -6.62,28.37 46.63,2.21 98.34,23.17 163.31,-34.38 164.55,-32.98 98.71,25.34 46.7,4.26 -6.56,30.42 -73.31,1.95 -106.97,23.45 -130.32,12.25 -163.52,34.38 " />
</g>
<g transform="matrix(0.56 0 0 0.56 279.33 205.34)"  >
<path style="stroke: none; stroke-width: 1; stroke-dasharray: none; stroke-linecap: butt; stroke-dashoffset: 0; stroke-linejoin: miter; stroke-miterlimit: 4; fill: rgb(230,230,230); fill-rule: nonzero; opacity: 1;" vector-effect="non-scaling-stroke"  transform=" translate(-564.53, -279.77)" d="M 532.7528 273.69917 C 529.4015775086534 273.7034701752769 526.6871532262331 276.4213797497349 526.6871532262331 279.772605 C 526.6871532262331 283.12383025026503 529.4015775086534 285.84173982472305 532.7528 285.84603999999996 L 596.29027 285.84603999999996 C 599.6445355295886 285.84603999999996 602.363705 283.12687052958853 602.363705 279.772605 C 602.363705 276.4183394704114 599.6445355295886 273.69917 596.29027 273.69917 Z" stroke-linecap="round" />
</g>
<g transform="matrix(0.56 0 0 0.56 219.09 179.83)"  >
<path style="stroke: none; stroke-width: 1; stroke-dasharray: none; stroke-linecap: butt; stroke-dashoffset: 0; stroke-linejoin: miter; stroke-miterlimit: 4; fill: rgb(255,255,255); fill-rule: nonzero; opacity: 1;" vector-effect="non-scaling-stroke"  transform=" translate(-456.26, -233.72)" d="M 474.76928 228.88845 C 475.54253 223.71156000000002 471.60089 220.92859 466.21128 219.07205000000002 L 467.95961 212.0593 L 463.6897 210.99547 L 461.98758000000004 217.82342 C 460.86658000000006 217.54379 459.71402000000006 217.27996 458.56874000000005 217.01856 L 460.28302 210.14562 L 456.01676000000003 209.08179 L 454.26722 216.09212000000002 C 453.33835 215.88057000000003 452.42649 215.67145000000002 451.54139000000004 215.45139000000003 L 451.54625000000004 215.42951000000002 L 445.65933000000007 213.95960000000002 L 444.52377000000007 218.51886000000002 C 444.52377000000007 218.51886000000002 447.69094000000007 219.24470000000002 447.6240700000001 219.28968 C 448.85291975923815 219.436818847672 449.73756084474843 220.54100462991707 449.6131200000001 221.77236 L 447.62164000000007 229.76136 C 447.7725256344969 229.7989720814456 447.9207671663995 229.84649181714317 448.06540000000007 229.90361 L 447.61555000000004 229.79175999999998 L 444.82285 240.98323 C 444.6988795934535 241.37778090674357 444.42273057050915 241.70662972371397 444.0555568836503 241.89695198565397 C 443.6883831967914 242.087274247594 443.2604844554023 242.12336433506434 442.86662 241.99723 C 442.90918 242.05923 439.76389 241.22276 439.76389 241.22276 L 437.64475 246.11029 L 443.20097 247.49509999999998 C 444.2344 247.75409999999997 445.24717 248.02518999999998 446.24291 248.2805 L 444.47634999999997 255.37472 L 448.74017 256.43855 L 450.49093 249.42093000000003 C 451.65446 249.73704000000004 452.78515 250.02883000000003 453.89153999999996 250.30360000000002 L 452.14807999999994 257.2884 L 456.41676999999993 258.35222000000005 L 458.18332999999996 251.27260000000004 C 465.46232999999995 252.65010000000004 470.93710999999996 252.09448000000003 473.23862999999994 245.51212000000004 C 475.09515999999996 240.21121000000005 473.14743999999996 237.15347000000003 469.31762999999995 235.15833000000003 C 472.10662999999994 234.51274000000004 474.20762999999994 232.67809000000003 474.76807999999994 228.88843000000003 Z M 465.01488 242.56503 C 463.69452 247.86594 454.77052000000003 245.00150000000002 451.87569 244.28174 L 454.21976 234.8848 C 457.11337000000003 235.60699000000002 466.39117 237.0368 465.0161 242.56503 Z M 466.33403 228.81186 C 465.13038 233.63372999999999 457.70182 231.18385999999998 455.29087999999996 230.58328 L 457.41610999999995 222.0605 C 459.82705 222.6611 467.58874 223.78208 466.334 228.81186 Z" stroke-linecap="round" />
</g>
<g transform="matrix(0.56 0 0 0.56 429.87 310.19)"  >
<path style="stroke: none; stroke-width: 1; stroke-dasharray: none; stroke-linecap: butt; stroke-dashoffset: 0; stroke-linejoin: miter; stroke-miterlimit: 4; fill: rgb(230,230,230); fill-rule: nonzero; opacity: 1;" vector-effect="non-scaling-stroke"  transform=" translate(-833.76, -467.93)" d="M 584.4211 390.5244 C 582.0541413741234 390.52716077353756 580.1360307735375 392.4452713741234 580.13327 394.81223 L 580.13327 541.0569 C 580.1360363265193 543.4238482245516 582.0541517433513 545.3419412744123 584.4211 545.34468 L 1083.0899100000001 545.34468 C 1085.456823419439 545.3418807289767 1087.3748862491204 543.4238134259608 1087.37768 541.0569 L 1087.37768 394.8122 C 1087.3749357870984 392.44525792331467 1085.4568520380535 390.5271473339717 1083.0899100000001 390.52437000000003 Z" stroke-linecap="round" />
</g>
<g transform="matrix(0.56 0 0 0.56 429.81 310.14)"  >
<path style="stroke: none; stroke-width: 1; stroke-dasharray: none; stroke-linecap: butt; stroke-dashoffset: 0; stroke-linejoin: miter; stroke-miterlimit: 4; fill: rgb(255,255,255); fill-rule: nonzero; opacity: 1;" vector-effect="non-scaling-stroke"  transform=" translate(-833.76, -467.93)" d="M 590.8784 534.59954 L 1076.63226 534.59954 L 1076.63226 401.26962 L 590.8784 401.26962 Z" stroke-linecap="round" />
</g>
<g transform="matrix(0.56 0 0 0.56 556.24 335.49)"  >
<path style="stroke: none; stroke-width: 1; stroke-dasharray: none; stroke-linecap: butt; stroke-dashoffset: 0; stroke-linejoin: miter; stroke-miterlimit: 4; fill: rgb(187,3,225); fill-rule: nonzero; opacity: 1;" vector-effect="non-scaling-stroke"  transform=" translate(-1029.52, -514.04)" d="M 1015.31828 506.93968 C 1011.3955947216143 506.93968 1008.2156299999999 510.11964472161435 1008.2156299999999 514.04233 C 1008.2156299999999 517.9650152783857 1011.3955947216143 521.14498 1015.31828 521.14498 L 1043.72882 521.14498 C 1047.6515052783857 521.14498 1050.83147 517.9650152783857 1050.83147 514.04233 C 1050.83147 510.11964472161435 1047.6515052783857 506.93968 1043.72882 506.93968 L 1015.3182800000001 506.93968 Z" stroke-linecap="round" />
</g>
<g transform="matrix(0.56 0 0 0.56 458.96 324.38)"  >
<rect style="stroke: none; stroke-width: 1; stroke-dasharray: none; stroke-linecap: butt; stroke-dashoffset: 0; stroke-linejoin: miter; stroke-miterlimit: 4; fill: rgb(230,230,230); fill-rule: nonzero; opacity: 1;" vector-effect="non-scaling-stroke"  x="-163.985" y="-0.935" rx="0" ry="0" width="327.97" height="1.87" />
</g>
<g transform="matrix(0.56 0 0 0.56 329.22 310.02)"  >
<circle style="stroke: none; stroke-width: 1; stroke-dasharray: none; stroke-linecap: butt; stroke-dashoffset: 0; stroke-linejoin: miter; stroke-miterlimit: 4; fill: rgb(118,104,254); fill-rule: nonzero; opacity: 1;" vector-effect="non-scaling-stroke"  cx="0" cy="0" r="41.36917" />
</g>
<g transform="matrix(0.56 0 0 0.56 453.91 300.03)"  >
<polygon style="stroke: none; stroke-width: 1; stroke-dasharray: none; stroke-linecap: butt; stroke-dashoffset: 0; stroke-linejoin: miter; stroke-miterlimit: 4; fill: rgb(118,104,254); fill-rule: nonzero; opacity: 1;" vector-effect="non-scaling-stroke"  points="-163.52,34.38 -164.55,32.82 -130.47,10.1 -107.1,21.32 -73.49,-0.16 -73.03,0.04 -6.62,28.37 46.63,2.21 98.34,23.17 163.31,-34.38 164.55,-32.98 98.71,25.34 46.7,4.25 -6.56,30.42 -73.31,1.95 -106.97,23.45 -130.32,12.25 -163.52,34.38 " />
</g>
<g transform="matrix(0.56 0 0 0.56 388.32 335.46)"  >
<path style="stroke: none; stroke-width: 1; stroke-dasharray: none; stroke-linecap: butt; stroke-dashoffset: 0; stroke-linejoin: miter; stroke-miterlimit: 4; fill: rgb(230,230,230); fill-rule: nonzero; opacity: 1;" vector-effect="non-scaling-stroke"  transform=" translate(-760.71, -513.99)" d="M 728.93944 507.91674 C 725.5851744704114 507.91674 722.866005 510.63590947041143 722.866005 513.990175 C 722.866005 517.3444405295886 725.5851744704114 520.06361 728.93944 520.06361 L 792.47691 520.06361 C 795.8311755295886 520.06361 798.550345 517.3444405295886 798.550345 513.990175 C 798.550345 510.6359094704115 795.8311755295886 507.91674000000006 792.47691 507.91674000000006 Z" stroke-linecap="round" />
</g>
<g transform="matrix(0.56 0 0 0.56 329.11 318.49)"  >
<polygon style="stroke: none; stroke-width: 1; stroke-dasharray: none; stroke-linecap: butt; stroke-dashoffset: 0; stroke-linejoin: miter; stroke-miterlimit: 4; fill: rgb(255,255,255); fill-rule: nonzero; opacity: 1;" vector-effect="non-scaling-stroke"  points="-0.01,11.79 16.74,-11.79 -0.01,-1.9 -0.01,-1.9 -16.74,-11.79 -0.01,11.79 -0.01,11.79 -0.01,11.79 -0.01,11.79 -0.01,11.79 " />
</g>
<g transform="matrix(0.56 0 0 0.56 329.11 305.24)"  >
<polygon style="stroke: none; stroke-width: 1; stroke-dasharray: none; stroke-linecap: butt; stroke-dashoffset: 0; stroke-linejoin: miter; stroke-miterlimit: 4; fill: rgb(255,255,255); fill-rule: nonzero; opacity: 1;" vector-effect="non-scaling-stroke"  points="0,18.83 0,18.83 0,18.83 0,18.83 16.74,8.94 0,-18.83 0,-18.83 0,-18.83 0,-18.83 0,-18.83 -16.74,8.94 0,18.83 " />
</g>
<g transform="matrix(0 0 0 0 0 0)"  >
<g style=""   >
</g>
</g>
<g transform="matrix(0 0 0 0 0 0)"  >
<g style=""   >
</g>
</g>
<g transform="matrix(0 0 0 0 0 0)"  >
<g style=""   >
</g>
</g>
<g transform="matrix(0 0 0 0 0 0)"  >
<g style=""   >
</g>
</g>
</svg>